<mxfile host="65bd71144e">
    <diagram id="zOOxbZsXO21W-YQC83xi" name="Main">
        <mxGraphModel dx="2755" dy="1704" grid="0" gridSize="10" guides="1" tooltips="1" connect="1" arrows="1" fold="1" page="0" pageScale="1" pageWidth="850" pageHeight="1100" math="0" shadow="0">
            <root>
                <mxCell id="0"/>
                <mxCell id="1" parent="0"/>
                <mxCell id="2" value="BlackjackPlayer" style="swimlane;fontStyle=1;align=center;verticalAlign=top;childLayout=stackLayout;horizontal=1;startSize=26;horizontalStack=0;resizeParent=1;resizeParentMax=0;resizeLast=0;collapsible=1;marginBottom=0;" parent="1" vertex="1">
                    <mxGeometry x="-320" y="120" width="160" height="80" as="geometry"/>
                </mxCell>
                <mxCell id="3" value="- name: String&#10;- age: int&#10;Â gender: String" style="text;strokeColor=none;fillColor=none;align=left;verticalAlign=top;spacingLeft=4;spacingRight=4;overflow=hidden;rotatable=0;points=[[0,0.5],[1,0.5]];portConstraint=eastwest;" parent="2" vertex="1">
                    <mxGeometry y="26" width="160" height="54" as="geometry"/>
                </mxCell>
                <mxCell id="6" value="SimpleFileFilter" style="swimlane;fontStyle=1;align=center;verticalAlign=top;childLayout=stackLayout;horizontal=1;startSize=26;horizontalStack=0;resizeParent=1;resizeParentMax=0;resizeLast=0;collapsible=1;marginBottom=0;" vertex="1" parent="1">
                    <mxGeometry x="-130" y="914" width="160" height="120" as="geometry"/>
                </mxCell>
                <mxCell id="7" value="- extension: String&#10;- descreption: String" style="text;strokeColor=none;fillColor=none;align=left;verticalAlign=top;spacingLeft=4;spacingRight=4;overflow=hidden;rotatable=0;points=[[0,0.5],[1,0.5]];portConstraint=eastwest;" vertex="1" parent="6">
                    <mxGeometry y="26" width="160" height="44" as="geometry"/>
                </mxCell>
                <mxCell id="8" value="" style="line;strokeWidth=1;fillColor=none;align=left;verticalAlign=middle;spacingTop=-1;spacingLeft=3;spacingRight=3;rotatable=0;labelPosition=right;points=[];portConstraint=eastwest;" vertex="1" parent="6">
                    <mxGeometry y="70" width="160" height="8" as="geometry"/>
                </mxCell>
                <mxCell id="9" value="+ accept(File): boolean&#10;+ getDescription(): String" style="text;strokeColor=none;fillColor=none;align=left;verticalAlign=top;spacingLeft=4;spacingRight=4;overflow=hidden;rotatable=0;points=[[0,0.5],[1,0.5]];portConstraint=eastwest;" vertex="1" parent="6">
                    <mxGeometry y="78" width="160" height="42" as="geometry"/>
                </mxCell>
                <mxCell id="10" value="SpringUtilities" style="swimlane;fontStyle=1;align=center;verticalAlign=top;childLayout=stackLayout;horizontal=1;startSize=26;horizontalStack=0;resizeParent=1;resizeParentMax=0;resizeLast=0;collapsible=1;marginBottom=0;rotation=0;html=1;" vertex="1" parent="1">
                    <mxGeometry y="-200" width="420" height="96" as="geometry"/>
                </mxCell>
                <mxCell id="13" value="+ printSizes(Component): void&#10;+ makeGrid(Container, int, int, int,int ,int, int): void)&#10;- getConstraintsForCell(int, int, Container,int): SpringLayout.Constraints&#10;+ makeCompactGrid(Container, int, int, int, int, int, int): void" style="text;strokeColor=none;fillColor=none;align=left;verticalAlign=top;spacingLeft=4;spacingRight=4;overflow=hidden;rotatable=0;points=[[0,0.5],[1,0.5]];portConstraint=eastwest;rotation=0;fontStyle=4" vertex="1" parent="10">
                    <mxGeometry y="26" width="420" height="70" as="geometry"/>
                </mxCell>
                <mxCell id="14" value="CardHand" style="swimlane;fontStyle=1;align=center;verticalAlign=top;childLayout=stackLayout;horizontal=1;startSize=26;horizontalStack=0;resizeParent=1;resizeParentMax=0;resizeLast=0;collapsible=1;marginBottom=0;" vertex="1" parent="1">
                    <mxGeometry x="560" y="440" width="160" height="90" as="geometry"/>
                </mxCell>
                <mxCell id="16" value="" style="line;strokeWidth=1;fillColor=none;align=left;verticalAlign=middle;spacingTop=-1;spacingLeft=3;spacingRight=3;rotatable=0;labelPosition=right;points=[];portConstraint=eastwest;" vertex="1" parent="14">
                    <mxGeometry y="26" width="160" height="8" as="geometry"/>
                </mxCell>
                <mxCell id="17" value="+ getTotal(): int&#10;+isBust(): boolean&#10;+hasBlackjack(): boolean" style="text;strokeColor=none;fillColor=none;align=left;verticalAlign=top;spacingLeft=4;spacingRight=4;overflow=hidden;rotatable=0;points=[[0,0.5],[1,0.5]];portConstraint=eastwest;" vertex="1" parent="14">
                    <mxGeometry y="34" width="160" height="56" as="geometry"/>
                </mxCell>
                <mxCell id="18" value="AppWindow" style="swimlane;fontStyle=1;align=center;verticalAlign=top;childLayout=stackLayout;horizontal=1;startSize=26;horizontalStack=0;resizeParent=1;resizeParentMax=0;resizeLast=0;collapsible=1;marginBottom=0;" vertex="1" parent="1">
                    <mxGeometry x="120" y="40" width="280" height="240" as="geometry"/>
                </mxCell>
                <mxCell id="19" value="- gamePanel: GamePanel&#10;- defaultTableColour: Color&#10;-savePlayer: JMenuItem&#10;-openPlayer: JMenuItem&#10;+WIDTH: int&#10;+HEIGHT: int" style="text;strokeColor=none;fillColor=none;align=left;verticalAlign=top;spacingLeft=4;spacingRight=4;overflow=hidden;rotatable=0;points=[[0,0.5],[1,0.5]];portConstraint=eastwest;" vertex="1" parent="18">
                    <mxGeometry y="26" width="280" height="94" as="geometry"/>
                </mxCell>
                <mxCell id="20" value="" style="line;strokeWidth=1;fillColor=none;align=left;verticalAlign=middle;spacingTop=-1;spacingLeft=3;spacingRight=3;rotatable=0;labelPosition=right;points=[];portConstraint=eastwest;" vertex="1" parent="18">
                    <mxGeometry y="120" width="280" height="8" as="geometry"/>
                </mxCell>
                <mxCell id="21" value="+actionPerformed(ActionEvent): void&#10;+componentResized(ComponentEvent): void&#10;&#10;+componentMoved(ComponentEvent): void&#10;+componentShown(ComponentEvent): void&#10;+componentHidden(ComponentEvent): void" style="text;strokeColor=none;fillColor=none;align=left;verticalAlign=top;spacingLeft=4;spacingRight=4;overflow=hidden;rotatable=0;points=[[0,0.5],[1,0.5]];portConstraint=eastwest;" vertex="1" parent="18">
                    <mxGeometry y="128" width="280" height="112" as="geometry"/>
                </mxCell>
                <mxCell id="22" value="PlayerCardHand" style="swimlane;fontStyle=1;align=center;verticalAlign=top;childLayout=stackLayout;horizontal=1;startSize=26;horizontalStack=0;resizeParent=1;resizeParentMax=0;resizeLast=0;collapsible=1;marginBottom=0;" vertex="1" parent="1">
                    <mxGeometry x="660" y="600" width="160" height="60" as="geometry"/>
                </mxCell>
                <mxCell id="24" value="" style="line;strokeWidth=1;fillColor=none;align=left;verticalAlign=middle;spacingTop=-1;spacingLeft=3;spacingRight=3;rotatable=0;labelPosition=right;points=[];portConstraint=eastwest;" vertex="1" parent="22">
                    <mxGeometry y="26" width="160" height="8" as="geometry"/>
                </mxCell>
                <mxCell id="25" value="+ add(Card): boolean" style="text;strokeColor=none;fillColor=none;align=left;verticalAlign=top;spacingLeft=4;spacingRight=4;overflow=hidden;rotatable=0;points=[[0,0.5],[1,0.5]];portConstraint=eastwest;" vertex="1" parent="22">
                    <mxGeometry y="34" width="160" height="26" as="geometry"/>
                </mxCell>
                <mxCell id="26" value="GamePanel" style="swimlane;fontStyle=1;align=center;verticalAlign=top;childLayout=stackLayout;horizontal=1;startSize=26;horizontalStack=0;resizeParent=1;resizeParentMax=0;resizeLast=0;collapsible=1;marginBottom=0;" vertex="1" parent="1">
                    <mxGeometry x="120" y="320" width="240" height="520" as="geometry"/>
                </mxCell>
                <mxCell id="27" value="-dealer: Dealer&#10;-player: Player&#10;-table: Gametable&#10;&#10;-newGameButton: JButton&#10;-hitButton: JButton&#10;-doubleButton: JButton&#10;-standButton: JButton&#10;-add1Chip: JButton&#10;-add5Chip: JButton&#10;-add10Chip: JButton&#10;-add25Chip: JButton&#10;-add100Chip: JButton&#10;-clearBet: JButton&#10;&#10;-currentBet: JLabel&#10;-playerWallet: JLabel&#10;-cardsLeft: JLabel&#10;-dealerSays: JLabel" style="text;strokeColor=none;fillColor=none;align=left;verticalAlign=top;spacingLeft=4;spacingRight=4;overflow=hidden;rotatable=0;points=[[0,0.5],[1,0.5]];portConstraint=eastwest;" vertex="1" parent="26">
                    <mxGeometry y="26" width="240" height="274" as="geometry"/>
                </mxCell>
                <mxCell id="28" value="" style="line;strokeWidth=1;fillColor=none;align=left;verticalAlign=middle;spacingTop=-1;spacingLeft=3;spacingRight=3;rotatable=0;labelPosition=right;points=[];portConstraint=eastwest;" vertex="1" parent="26">
                    <mxGeometry y="300" width="240" height="20" as="geometry"/>
                </mxCell>
                <mxCell id="29" value="+actionPerfomed(ActionEvent): void&#10;+newGame(): void&#10;+hit(): void&#10;+playDouble(): void&#10;+stand(): void&#10;+increaseBet(): void&#10;+clearBet(): void&#10;+updateValues():void&#10;&#10;-moreFunds(): void&#10;+savePlayer(): void&#10;+openPlayer(): void&#10;+updatePlayer(): void&#10;" style="text;strokeColor=none;fillColor=none;align=left;verticalAlign=top;spacingLeft=4;spacingRight=4;overflow=hidden;rotatable=0;points=[[0,0.5],[1,0.5]];portConstraint=eastwest;" vertex="1" parent="26">
                    <mxGeometry y="320" width="240" height="200" as="geometry"/>
                </mxCell>
                <mxCell id="30" value="PlayerDialog" style="swimlane;fontStyle=1;align=center;verticalAlign=top;childLayout=stackLayout;horizontal=1;startSize=26;horizontalStack=0;resizeParent=1;resizeParentMax=0;resizeLast=0;collapsible=1;marginBottom=0;" vertex="1" parent="1">
                    <mxGeometry x="520" y="-80" width="270" height="240" as="geometry"/>
                </mxCell>
                <mxCell id="31" value="~ name: String&#10;~ age: int&#10;~ gender: String&#10;~ player: Player&#10;~ genders: String[ ]&#10;~ playerName: JTextField&#10;~ playerAge: JTextField&#10;~ playerGender: JComboBox&#10;" style="text;strokeColor=none;fillColor=none;align=left;verticalAlign=top;spacingLeft=4;spacingRight=4;overflow=hidden;rotatable=0;points=[[0,0.5],[1,0.5]];portConstraint=eastwest;" vertex="1" parent="30">
                    <mxGeometry y="26" width="270" height="124" as="geometry"/>
                </mxCell>
                <mxCell id="32" value="" style="line;strokeWidth=1;fillColor=none;align=left;verticalAlign=middle;spacingTop=-1;spacingLeft=3;spacingRight=3;rotatable=0;labelPosition=right;points=[];portConstraint=eastwest;" vertex="1" parent="30">
                    <mxGeometry y="150" width="270" height="8" as="geometry"/>
                </mxCell>
                <mxCell id="33" value="+ PlayerDialog(Frame, String, boolean, Player)&#10;+ actionPerformed(ActionEvent evt): void&#10;- updateDetails(): void&#10;+ getPlayer(): Player" style="text;strokeColor=none;fillColor=none;align=left;verticalAlign=top;spacingLeft=4;spacingRight=4;overflow=hidden;rotatable=0;points=[[0,0.5],[1,0.5]];portConstraint=eastwest;" vertex="1" parent="30">
                    <mxGeometry y="158" width="270" height="82" as="geometry"/>
                </mxCell>
                <mxCell id="ZUR1X7jLnE7plWEAR9zV-33" value="Use" style="endArrow=open;endSize=12;dashed=1;html=1;" edge="1" parent="1">
                    <mxGeometry width="160" relative="1" as="geometry">
                        <mxPoint x="-585" y="1010" as="sourcePoint"/>
                        <mxPoint x="-425" y="1010" as="targetPoint"/>
                    </mxGeometry>
                </mxCell>
                <mxCell id="ZUR1X7jLnE7plWEAR9zV-34" value="" style="endArrow=block;dashed=1;endFill=0;endSize=12;html=1;" edge="1" parent="1">
                    <mxGeometry width="160" relative="1" as="geometry">
                        <mxPoint x="-595" y="960" as="sourcePoint"/>
                        <mxPoint x="-435" y="960" as="targetPoint"/>
                    </mxGeometry>
                </mxCell>
                <mxCell id="ZUR1X7jLnE7plWEAR9zV-35" value="Extends" style="endArrow=block;endSize=16;endFill=0;html=1;" edge="1" parent="1">
                    <mxGeometry width="160" relative="1" as="geometry">
                        <mxPoint x="-595" y="900" as="sourcePoint"/>
                        <mxPoint x="-435" y="900" as="targetPoint"/>
                    </mxGeometry>
                </mxCell>
                <mxCell id="ZUR1X7jLnE7plWEAR9zV-36" value="" style="endArrow=open;endFill=1;endSize=12;html=1;" edge="1" parent="1">
                    <mxGeometry width="160" relative="1" as="geometry">
                        <mxPoint x="-585" y="1060" as="sourcePoint"/>
                        <mxPoint x="-425" y="1060" as="targetPoint"/>
                    </mxGeometry>
                </mxCell>
                <mxCell id="ynJ-LX97D-C2hGidjF-I-34" value="Dealer" style="swimlane;fontStyle=1;align=center;verticalAlign=top;childLayout=stackLayout;horizontal=1;startSize=26;horizontalStack=0;resizeParent=1;resizeParentMax=0;resizeLast=0;collapsible=1;marginBottom=0;" vertex="1" parent="1">
                    <mxGeometry x="-560" y="360" width="240" height="360" as="geometry"/>
                </mxCell>
                <mxCell id="ynJ-LX97D-C2hGidjF-I-35" value="- deck: Deck&lt;br&gt;+ hand: DealerCardhand&lt;br&gt;- firstDeal: boolean&lt;br&gt;&lt;u&gt;+ DEALER_STANDS_ON: int&lt;br&gt;+ CARD_PACKS: int&lt;br&gt;&lt;/u&gt;- gameOver: boolean&lt;br&gt;- cradsFaceUp: boolean&lt;br&gt;- playersCanDouble: boolean&lt;br&gt;- said: String" style="text;strokeColor=none;fillColor=none;align=left;verticalAlign=top;spacingLeft=4;spacingRight=4;overflow=hidden;rotatable=0;points=[[0,0.5],[1,0.5]];portConstraint=eastwest;fontStyle=0;html=1;" vertex="1" parent="ynJ-LX97D-C2hGidjF-I-34">
                    <mxGeometry y="26" width="240" height="144" as="geometry"/>
                </mxCell>
                <mxCell id="ynJ-LX97D-C2hGidjF-I-36" value="" style="line;strokeWidth=1;fillColor=none;align=left;verticalAlign=middle;spacingTop=-1;spacingLeft=3;spacingRight=3;rotatable=0;labelPosition=right;points=[];portConstraint=eastwest;" vertex="1" parent="ynJ-LX97D-C2hGidjF-I-34">
                    <mxGeometry y="170" width="240" height="8" as="geometry"/>
                </mxCell>
                <mxCell id="ynJ-LX97D-C2hGidjF-I-37" value="+ say(String): void&#10;+ says(): String&#10;+ acceptBetFrom(Player, double): boolean&#10;+ deal(Player): boolean&#10;+ hit(Player): void&#10;+ playDouble(Player): void&#10;+ stand(Player): void&#10;- go(Player): void&#10;+ newDeck(): void&#10;+ canPlayerDouble(Player): boolean" style="text;strokeColor=none;fillColor=none;align=left;verticalAlign=top;spacingLeft=4;spacingRight=4;overflow=hidden;rotatable=0;points=[[0,0.5],[1,0.5]];portConstraint=eastwest;" vertex="1" parent="ynJ-LX97D-C2hGidjF-I-34">
                    <mxGeometry y="178" width="240" height="182" as="geometry"/>
                </mxCell>
                <mxCell id="ynJ-LX97D-C2hGidjF-I-38" value="Player" style="swimlane;fontStyle=1;align=center;verticalAlign=top;childLayout=stackLayout;horizontal=1;startSize=26;horizontalStack=0;resizeParent=1;resizeParentMax=0;resizeLast=0;collapsible=1;marginBottom=0;" vertex="1" parent="1">
                    <mxGeometry x="-240" y="360" width="200" height="300" as="geometry"/>
                </mxCell>
                <mxCell id="ynJ-LX97D-C2hGidjF-I-39" value="+ hand: PlayerCardHand&#10;- wallet: double&#10;- bet: double" style="text;strokeColor=none;fillColor=none;align=left;verticalAlign=top;spacingLeft=4;spacingRight=4;overflow=hidden;rotatable=0;points=[[0,0.5],[1,0.5]];portConstraint=eastwest;" vertex="1" parent="ynJ-LX97D-C2hGidjF-I-38">
                    <mxGeometry y="26" width="200" height="64" as="geometry"/>
                </mxCell>
                <mxCell id="ynJ-LX97D-C2hGidjF-I-40" value="" style="line;strokeWidth=1;fillColor=none;align=left;verticalAlign=middle;spacingTop=-1;spacingLeft=3;spacingRight=3;rotatable=0;labelPosition=right;points=[];portConstraint=eastwest;" vertex="1" parent="ynJ-LX97D-C2hGidjF-I-38">
                    <mxGeometry y="90" width="200" height="8" as="geometry"/>
                </mxCell>
                <mxCell id="ynJ-LX97D-C2hGidjF-I-41" value="+ setWallet(double): void&#10;+ getWallet(): double&#10;+ setBet(double): boolean&#10;+ getBet(): double&#10;+ clearBet(): void&#10;+ doubleBet(): boolean&#10;+ loses(): void&#10;+ wins(): void&#10;+ betPlaced(): boolean&#10;+ isBankrupt(): boolean&#10;+ canDouble(): boolean&#10;+ getHand(): PlayerCardHand" style="text;strokeColor=none;fillColor=none;align=left;verticalAlign=top;spacingLeft=4;spacingRight=4;overflow=hidden;rotatable=0;points=[[0,0.5],[1,0.5]];portConstraint=eastwest;" vertex="1" parent="ynJ-LX97D-C2hGidjF-I-38">
                    <mxGeometry y="98" width="200" height="202" as="geometry"/>
                </mxCell>
                <mxCell id="ynJ-LX97D-C2hGidjF-I-42" value="Extends" style="endArrow=block;endSize=16;endFill=0;html=1;exitX=0.5;exitY=0;exitDx=0;exitDy=0;entryX=0.254;entryY=1.033;entryDx=0;entryDy=0;entryPerimeter=0;" edge="1" parent="1" source="ynJ-LX97D-C2hGidjF-I-34" target="3">
                    <mxGeometry x="0.5099" width="160" relative="1" as="geometry">
                        <mxPoint x="-250" y="610" as="sourcePoint"/>
                        <mxPoint x="-299.03999999999996" y="216" as="targetPoint"/>
                        <Array as="points">
                            <mxPoint x="-440" y="320"/>
                            <mxPoint x="-279" y="320"/>
                        </Array>
                        <mxPoint as="offset"/>
                    </mxGeometry>
                </mxCell>
                <mxCell id="ynJ-LX97D-C2hGidjF-I-43" value="Extends" style="endArrow=block;endSize=16;endFill=0;html=1;exitX=0.5;exitY=0;exitDx=0;exitDy=0;entryX=0.75;entryY=1;entryDx=0;entryDy=0;" edge="1" parent="1" source="ynJ-LX97D-C2hGidjF-I-38" target="2">
                    <mxGeometry x="0.2727" width="160" relative="1" as="geometry">
                        <mxPoint x="-270" y="250" as="sourcePoint"/>
                        <mxPoint x="-251.03999999999996" y="248.00400000000002" as="targetPoint"/>
                        <Array as="points">
                            <mxPoint x="-140" y="320"/>
                            <mxPoint x="-200" y="320"/>
                        </Array>
                        <mxPoint as="offset"/>
                    </mxGeometry>
                </mxCell>
                <mxCell id="ZUR1X7jLnE7plWEAR9zV-37" value="DealerCardHand" style="swimlane;fontStyle=1;align=center;verticalAlign=top;childLayout=stackLayout;horizontal=1;startSize=26;horizontalStack=0;resizeParent=1;resizeParentMax=0;resizeLast=0;collapsible=1;marginBottom=0;" vertex="1" parent="1">
                    <mxGeometry x="460" y="600" width="160" height="60" as="geometry"/>
                </mxCell>
                <mxCell id="ZUR1X7jLnE7plWEAR9zV-39" value="" style="line;strokeWidth=1;fillColor=none;align=left;verticalAlign=middle;spacingTop=-1;spacingLeft=3;spacingRight=3;rotatable=0;labelPosition=right;points=[];portConstraint=eastwest;" vertex="1" parent="ZUR1X7jLnE7plWEAR9zV-37">
                    <mxGeometry y="26" width="160" height="8" as="geometry"/>
                </mxCell>
                <mxCell id="ZUR1X7jLnE7plWEAR9zV-40" value="+ add(Card): boolean" style="text;strokeColor=none;fillColor=none;align=left;verticalAlign=top;spacingLeft=4;spacingRight=4;overflow=hidden;rotatable=0;points=[[0,0.5],[1,0.5]];portConstraint=eastwest;" vertex="1" parent="ZUR1X7jLnE7plWEAR9zV-37">
                    <mxGeometry y="34" width="160" height="26" as="geometry"/>
                </mxCell>
                <mxCell id="ZUR1X7jLnE7plWEAR9zV-41" value="Extends" style="endArrow=block;endSize=16;endFill=0;html=1;exitX=0.556;exitY=0.017;exitDx=0;exitDy=0;exitPerimeter=0;entryX=0.394;entryY=1.018;entryDx=0;entryDy=0;entryPerimeter=0;" edge="1" parent="1" source="ZUR1X7jLnE7plWEAR9zV-37" target="17">
                    <mxGeometry width="160" relative="1" as="geometry">
                        <mxPoint x="490" y="510" as="sourcePoint"/>
                        <mxPoint x="650" y="510" as="targetPoint"/>
                        <Array as="points">
                            <mxPoint x="549" y="580"/>
                            <mxPoint x="623" y="580"/>
                        </Array>
                    </mxGeometry>
                </mxCell>
                <mxCell id="ZUR1X7jLnE7plWEAR9zV-42" value="Extends" style="endArrow=block;endSize=16;endFill=0;html=1;exitX=0.5;exitY=0;exitDx=0;exitDy=0;" edge="1" parent="1" source="22">
                    <mxGeometry width="160" relative="1" as="geometry">
                        <mxPoint x="700.0799999999999" y="590" as="sourcePoint"/>
                        <mxPoint x="690" y="530" as="targetPoint"/>
                        <Array as="points">
                            <mxPoint x="740" y="580"/>
                            <mxPoint x="690" y="580"/>
                        </Array>
                    </mxGeometry>
                </mxCell>
                <mxCell id="ZUR1X7jLnE7plWEAR9zV-43" value="Card" style="swimlane;fontStyle=1;align=center;verticalAlign=top;childLayout=stackLayout;horizontal=1;startSize=26;horizontalStack=0;resizeParent=1;resizeParentMax=0;resizeLast=0;collapsible=1;marginBottom=0;" vertex="1" parent="1">
                    <mxGeometry x="560" y="200" width="160" height="78" as="geometry"/>
                </mxCell>
                <mxCell id="ZUR1X7jLnE7plWEAR9zV-44" value="- suit: Suit&#10;- face: Face&#10;- code: int" style="text;strokeColor=none;fillColor=none;align=left;verticalAlign=top;spacingLeft=4;spacingRight=4;overflow=hidden;rotatable=0;points=[[0,0.5],[1,0.5]];portConstraint=eastwest;" vertex="1" parent="ZUR1X7jLnE7plWEAR9zV-43">
                    <mxGeometry y="26" width="160" height="44" as="geometry"/>
                </mxCell>
                <mxCell id="ZUR1X7jLnE7plWEAR9zV-45" value="" style="line;strokeWidth=1;fillColor=none;align=left;verticalAlign=middle;spacingTop=-1;spacingLeft=3;spacingRight=3;rotatable=0;labelPosition=right;points=[];portConstraint=eastwest;" vertex="1" parent="ZUR1X7jLnE7plWEAR9zV-43">
                    <mxGeometry y="70" width="160" height="8" as="geometry"/>
                </mxCell>
                <mxCell id="ZUR1X7jLnE7plWEAR9zV-47" value="Suit" style="swimlane;fontStyle=1;align=center;verticalAlign=top;childLayout=stackLayout;horizontal=1;startSize=26;horizontalStack=0;resizeParent=1;resizeParentMax=0;resizeLast=0;collapsible=1;marginBottom=0;" vertex="1" parent="1">
                    <mxGeometry x="840" y="74" width="160" height="86" as="geometry"/>
                </mxCell>
                <mxCell id="ZUR1X7jLnE7plWEAR9zV-48" value="- name: String" style="text;strokeColor=none;fillColor=none;align=left;verticalAlign=top;spacingLeft=4;spacingRight=4;overflow=hidden;rotatable=0;points=[[0,0.5],[1,0.5]];portConstraint=eastwest;" vertex="1" parent="ZUR1X7jLnE7plWEAR9zV-47">
                    <mxGeometry y="26" width="160" height="26" as="geometry"/>
                </mxCell>
                <mxCell id="ZUR1X7jLnE7plWEAR9zV-49" value="" style="line;strokeWidth=1;fillColor=none;align=left;verticalAlign=middle;spacingTop=-1;spacingLeft=3;spacingRight=3;rotatable=0;labelPosition=right;points=[];portConstraint=eastwest;" vertex="1" parent="ZUR1X7jLnE7plWEAR9zV-47">
                    <mxGeometry y="52" width="160" height="8" as="geometry"/>
                </mxCell>
                <mxCell id="ZUR1X7jLnE7plWEAR9zV-50" value="+ getName(): String" style="text;strokeColor=none;fillColor=none;align=left;verticalAlign=top;spacingLeft=4;spacingRight=4;overflow=hidden;rotatable=0;points=[[0,0.5],[1,0.5]];portConstraint=eastwest;" vertex="1" parent="ZUR1X7jLnE7plWEAR9zV-47">
                    <mxGeometry y="60" width="160" height="26" as="geometry"/>
                </mxCell>
                <mxCell id="ZUR1X7jLnE7plWEAR9zV-51" value="Face" style="swimlane;fontStyle=1;align=center;verticalAlign=top;childLayout=stackLayout;horizontal=1;startSize=26;horizontalStack=0;resizeParent=1;resizeParentMax=0;resizeLast=0;collapsible=1;marginBottom=0;" vertex="1" parent="1">
                    <mxGeometry x="1040" width="160" height="160" as="geometry"/>
                </mxCell>
                <mxCell id="ZUR1X7jLnE7plWEAR9zV-52" value="- name: String&#10;- value: int&#10;- HIGH_ACE: int&#10;- LOW_ACE: int" style="text;strokeColor=none;fillColor=none;align=left;verticalAlign=top;spacingLeft=4;spacingRight=4;overflow=hidden;rotatable=0;points=[[0,0.5],[1,0.5]];portConstraint=eastwest;" vertex="1" parent="ZUR1X7jLnE7plWEAR9zV-51">
                    <mxGeometry y="26" width="160" height="64" as="geometry"/>
                </mxCell>
                <mxCell id="ZUR1X7jLnE7plWEAR9zV-53" value="" style="line;strokeWidth=1;fillColor=none;align=left;verticalAlign=middle;spacingTop=-1;spacingLeft=3;spacingRight=3;rotatable=0;labelPosition=right;points=[];portConstraint=eastwest;" vertex="1" parent="ZUR1X7jLnE7plWEAR9zV-51">
                    <mxGeometry y="90" width="160" height="8" as="geometry"/>
                </mxCell>
                <mxCell id="ZUR1X7jLnE7plWEAR9zV-54" value="+ isAce(): boolean&#10;+ isLowAce(): boolean&#10;+ switchAce(): void" style="text;strokeColor=none;fillColor=none;align=left;verticalAlign=top;spacingLeft=4;spacingRight=4;overflow=hidden;rotatable=0;points=[[0,0.5],[1,0.5]];portConstraint=eastwest;" vertex="1" parent="ZUR1X7jLnE7plWEAR9zV-51">
                    <mxGeometry y="98" width="160" height="62" as="geometry"/>
                </mxCell>
                <mxCell id="ynJ-LX97D-C2hGidjF-I-48" value="Â«interfaceÂ»&lt;br&gt;&lt;b&gt;Serializable&lt;/b&gt;" style="html=1;" vertex="1" parent="1">
                    <mxGeometry x="-300" width="110" height="40" as="geometry"/>
                </mxCell>
                <mxCell id="ynJ-LX97D-C2hGidjF-I-49" value="" style="endArrow=block;dashed=1;endFill=0;endSize=12;html=1;exitX=0.325;exitY=-0.011;exitDx=0;exitDy=0;entryX=0;entryY=0.5;entryDx=0;entryDy=0;exitPerimeter=0;" edge="1" parent="1" source="ynJ-LX97D-C2hGidjF-I-34" target="ynJ-LX97D-C2hGidjF-I-48">
                    <mxGeometry width="160" relative="1" as="geometry">
                        <mxPoint x="-520" y="360" as="sourcePoint"/>
                        <mxPoint x="-360" y="360" as="targetPoint"/>
                        <Array as="points">
                            <mxPoint x="-480" y="20"/>
                        </Array>
                    </mxGeometry>
                </mxCell>
                <mxCell id="ynJ-LX97D-C2hGidjF-I-50" value="" style="endArrow=block;dashed=1;endFill=0;endSize=12;html=1;" edge="1" parent="1" target="ynJ-LX97D-C2hGidjF-I-48">
                    <mxGeometry width="160" relative="1" as="geometry">
                        <mxPoint x="-245" y="120" as="sourcePoint"/>
                        <mxPoint x="-240" y="40" as="targetPoint"/>
                    </mxGeometry>
                </mxCell>
                <mxCell id="ynJ-LX97D-C2hGidjF-I-51" value="" style="endArrow=block;dashed=1;endFill=0;endSize=12;html=1;exitX=0.802;exitY=-0.002;exitDx=0;exitDy=0;entryX=1;entryY=0.5;entryDx=0;entryDy=0;exitPerimeter=0;" edge="1" parent="1" source="ynJ-LX97D-C2hGidjF-I-38" target="ynJ-LX97D-C2hGidjF-I-48">
                    <mxGeometry width="160" relative="1" as="geometry">
                        <mxPoint x="-224.99" y="380" as="sourcePoint"/>
                        <mxPoint x="-100" y="190" as="targetPoint"/>
                        <Array as="points">
                            <mxPoint x="-80" y="20"/>
                        </Array>
                    </mxGeometry>
                </mxCell>
                <mxCell id="ynJ-LX97D-C2hGidjF-I-53" value="" style="endArrow=open;endFill=1;endSize=12;html=1;exitX=-0.004;exitY=0.974;exitDx=0;exitDy=0;exitPerimeter=0;entryX=1;entryY=0.896;entryDx=0;entryDy=0;entryPerimeter=0;" edge="1" parent="1" source="27" target="ynJ-LX97D-C2hGidjF-I-37">
                    <mxGeometry width="160" relative="1" as="geometry">
                        <mxPoint x="-17.90000000000009" y="536.0740000000001" as="sourcePoint"/>
                        <mxPoint x="100" y="670" as="targetPoint"/>
                        <Array as="points">
                            <mxPoint x="80" y="613"/>
                            <mxPoint x="80" y="701"/>
                        </Array>
                    </mxGeometry>
                </mxCell>
                <mxCell id="ynJ-LX97D-C2hGidjF-I-52" value="" style="endArrow=open;endFill=1;endSize=12;html=1;exitX=0;exitY=0.569;exitDx=0;exitDy=0;exitPerimeter=0;" edge="1" parent="1" source="27">
                    <mxGeometry width="160" relative="1" as="geometry">
                        <mxPoint x="-190" y="710" as="sourcePoint"/>
                        <mxPoint x="-40" y="502" as="targetPoint"/>
                        <Array as="points">
                            <mxPoint x="90" y="502"/>
                        </Array>
                    </mxGeometry>
                </mxCell>
                <mxCell id="ZUR1X7jLnE7plWEAR9zV-56" value="Deck" style="swimlane;fontStyle=1;align=center;verticalAlign=top;childLayout=stackLayout;horizontal=1;startSize=26;horizontalStack=0;resizeParent=1;resizeParentMax=0;resizeLast=0;collapsible=1;marginBottom=0;html=1;" vertex="1" parent="1">
                    <mxGeometry x="440" y="840" width="160" height="140" as="geometry"/>
                </mxCell>
                <mxCell id="ZUR1X7jLnE7plWEAR9zV-57" value="- numberOfPacks: int&lt;br&gt;" style="text;strokeColor=none;fillColor=none;align=left;verticalAlign=top;spacingLeft=4;spacingRight=4;overflow=hidden;rotatable=0;points=[[0,0.5],[1,0.5]];portConstraint=eastwest;html=1;" vertex="1" parent="ZUR1X7jLnE7plWEAR9zV-56">
                    <mxGeometry y="26" width="160" height="26" as="geometry"/>
                </mxCell>
                <mxCell id="ZUR1X7jLnE7plWEAR9zV-58" value="" style="line;strokeWidth=1;fillColor=none;align=left;verticalAlign=middle;spacingTop=-1;spacingLeft=3;spacingRight=3;rotatable=0;labelPosition=right;points=[];portConstraint=eastwest;html=1;" vertex="1" parent="ZUR1X7jLnE7plWEAR9zV-56">
                    <mxGeometry y="52" width="160" height="8" as="geometry"/>
                </mxCell>
                <mxCell id="ZUR1X7jLnE7plWEAR9zV-59" value="- setNumberOfPacks(tint): void&lt;br&gt;+ getNumberOfPacks(): int&lt;br&gt;+ shuffle(): void&lt;br&gt;+ deal(): Card&lt;br&gt;" style="text;strokeColor=none;fillColor=none;align=left;verticalAlign=top;spacingLeft=4;spacingRight=4;overflow=hidden;rotatable=0;points=[[0,0.5],[1,0.5]];portConstraint=eastwest;html=1;" vertex="1" parent="ZUR1X7jLnE7plWEAR9zV-56">
                    <mxGeometry y="60" width="160" height="80" as="geometry"/>
                </mxCell>
                <mxCell id="Qho0EwhKo2QukKXMdGNx-34" value="GameTable" style="swimlane;fontStyle=1;align=center;verticalAlign=top;childLayout=stackLayout;horizontal=1;startSize=26;horizontalStack=0;resizeParent=1;resizeParentMax=0;resizeLast=0;collapsible=1;marginBottom=0;" vertex="1" parent="1">
                    <mxGeometry x="1200" y="720" width="360" height="320" as="geometry"/>
                </mxCell>
                <mxCell id="Qho0EwhKo2QukKXMdGNx-35" value="-dealer: DealerHand&#10;-player: playerhand&#10;-CARD_INCREMENT: int&#10;-CARD_START: int&#10;-DEALER_POSITION: int&#10;-PLAYER_POSITION: int&#10;&#10;-NAME_SPACE: int&#10;&#10;-handTotalFont: Font&#10;-playerNameFont: Font&#10;&#10;-dealerName: String&#10;-playerName: String&#10;-cardImages: Image[]" style="text;strokeColor=none;fillColor=none;align=left;verticalAlign=top;spacingLeft=4;spacingRight=4;overflow=hidden;rotatable=0;points=[[0,0.5],[1,0.5]];portConstraint=eastwest;" vertex="1" parent="Qho0EwhKo2QukKXMdGNx-34">
                    <mxGeometry y="26" width="360" height="214" as="geometry"/>
                </mxCell>
                <mxCell id="Qho0EwhKo2QukKXMdGNx-36" value="" style="line;strokeWidth=1;fillColor=none;align=left;verticalAlign=middle;spacingTop=-1;spacingLeft=3;spacingRight=3;rotatable=0;labelPosition=right;points=[];portConstraint=eastwest;" vertex="1" parent="Qho0EwhKo2QukKXMdGNx-34">
                    <mxGeometry y="240" width="360" height="8" as="geometry"/>
                </mxCell>
                <mxCell id="Qho0EwhKo2QukKXMdGNx-37" value="+setNames(String, String): void&#10;+update(DealerCardHand, PlayerCardHand, boolean): void&#10;+paintComponent(Graphics): void&#10;" style="text;strokeColor=none;fillColor=none;align=left;verticalAlign=top;spacingLeft=4;spacingRight=4;overflow=hidden;rotatable=0;points=[[0,0.5],[1,0.5]];portConstraint=eastwest;" vertex="1" parent="Qho0EwhKo2QukKXMdGNx-34">
                    <mxGeometry y="248" width="360" height="72" as="geometry"/>
                </mxCell>
                <mxCell id="ynJ-LX97D-C2hGidjF-I-58" value="Vector&amp;lt;Card&amp;gt;" style="html=1;" vertex="1" parent="1">
                    <mxGeometry x="585" y="360" width="110" height="40" as="geometry"/>
                </mxCell>
                <mxCell id="ynJ-LX97D-C2hGidjF-I-59" value="Extends" style="endArrow=block;endSize=16;endFill=0;html=1;exitX=0.5;exitY=0;exitDx=0;exitDy=0;entryX=0.5;entryY=1;entryDx=0;entryDy=0;" edge="1" parent="1" source="14" target="ynJ-LX97D-C2hGidjF-I-58">
                    <mxGeometry width="160" relative="1" as="geometry">
                        <mxPoint x="700" y="660" as="sourcePoint"/>
                        <mxPoint x="860" y="660" as="targetPoint"/>
                    </mxGeometry>
                </mxCell>
                <mxCell id="ynJ-LX97D-C2hGidjF-I-60" value="" style="endArrow=open;endFill=1;endSize=12;html=1;exitX=0.5;exitY=0;exitDx=0;exitDy=0;entryX=0.5;entryY=1;entryDx=0;entryDy=0;" edge="1" parent="1" source="ynJ-LX97D-C2hGidjF-I-58" target="ZUR1X7jLnE7plWEAR9zV-43">
                    <mxGeometry width="160" relative="1" as="geometry">
                        <mxPoint x="425" y="290" as="sourcePoint"/>
                        <mxPoint x="585" y="290" as="targetPoint"/>
                    </mxGeometry>
                </mxCell>
                <mxCell id="ZUR1X7jLnE7plWEAR9zV-60" value="Stack&amp;lt;Card&amp;gt;" style="html=1;" vertex="1" parent="1">
                    <mxGeometry x="460" y="720" width="120" height="40" as="geometry"/>
                </mxCell>
                <mxCell id="ZUR1X7jLnE7plWEAR9zV-61" value="Extends" style="endArrow=block;endSize=16;endFill=0;html=1;exitX=0.5;exitY=0;exitDx=0;exitDy=0;entryX=0.5;entryY=1;entryDx=0;entryDy=0;" edge="1" parent="1" source="ZUR1X7jLnE7plWEAR9zV-56" target="ZUR1X7jLnE7plWEAR9zV-60">
                    <mxGeometry width="160" relative="1" as="geometry">
                        <mxPoint x="430" y="540" as="sourcePoint"/>
                        <mxPoint x="590" y="540" as="targetPoint"/>
                    </mxGeometry>
                </mxCell>
                <mxCell id="ZUR1X7jLnE7plWEAR9zV-62" value="" style="endArrow=open;endFill=1;endSize=12;html=1;exitX=0;exitY=0.5;exitDx=0;exitDy=0;entryX=0.25;entryY=1;entryDx=0;entryDy=0;" edge="1" parent="1" source="ZUR1X7jLnE7plWEAR9zV-60" target="ZUR1X7jLnE7plWEAR9zV-43">
                    <mxGeometry width="160" relative="1" as="geometry">
                        <mxPoint x="430" y="540" as="sourcePoint"/>
                        <mxPoint x="590" y="540" as="targetPoint"/>
                        <Array as="points">
                            <mxPoint x="440" y="740"/>
                            <mxPoint x="440" y="320"/>
                            <mxPoint x="600" y="320"/>
                        </Array>
                    </mxGeometry>
                </mxCell>
                <mxCell id="ynJ-LX97D-C2hGidjF-I-61" value="FileFilter" style="html=1;" vertex="1" parent="1">
                    <mxGeometry x="-105" y="815" width="110" height="50" as="geometry"/>
                </mxCell>
                <mxCell id="ynJ-LX97D-C2hGidjF-I-62" value="Extends" style="endArrow=block;endSize=16;endFill=0;html=1;exitX=0.5;exitY=0;exitDx=0;exitDy=0;" edge="1" parent="1" source="6" target="ynJ-LX97D-C2hGidjF-I-61">
                    <mxGeometry width="160" relative="1" as="geometry">
                        <mxPoint x="-350" y="930" as="sourcePoint"/>
                        <mxPoint x="-190" y="930" as="targetPoint"/>
                    </mxGeometry>
                </mxCell>
                <mxCell id="ZUR1X7jLnE7plWEAR9zV-63" value="CardPack" style="swimlane;fontStyle=1;align=center;verticalAlign=top;childLayout=stackLayout;horizontal=1;startSize=26;horizontalStack=0;resizeParent=1;resizeParentMax=0;resizeLast=0;collapsible=1;marginBottom=0;html=1;" vertex="1" parent="1">
                    <mxGeometry x="880" y="840" width="160" height="60" as="geometry"/>
                </mxCell>
                <mxCell id="ZUR1X7jLnE7plWEAR9zV-64" value="&lt;u&gt;+ CARDS_IN_PACK: int&lt;/u&gt;" style="text;strokeColor=none;fillColor=none;align=left;verticalAlign=top;spacingLeft=4;spacingRight=4;overflow=hidden;rotatable=0;points=[[0,0.5],[1,0.5]];portConstraint=eastwest;html=1;" vertex="1" parent="ZUR1X7jLnE7plWEAR9zV-63">
                    <mxGeometry y="26" width="160" height="26" as="geometry"/>
                </mxCell>
                <mxCell id="ZUR1X7jLnE7plWEAR9zV-65" value="" style="line;strokeWidth=1;fillColor=none;align=left;verticalAlign=middle;spacingTop=-1;spacingLeft=3;spacingRight=3;rotatable=0;labelPosition=right;points=[];portConstraint=eastwest;html=1;" vertex="1" parent="ZUR1X7jLnE7plWEAR9zV-63">
                    <mxGeometry y="52" width="160" height="8" as="geometry"/>
                </mxCell>
                <mxCell id="ZUR1X7jLnE7plWEAR9zV-68" value="Extends" style="endArrow=block;endSize=16;endFill=0;html=1;entryX=0.833;entryY=1;entryDx=0;entryDy=0;exitX=0.25;exitY=0;exitDx=0;exitDy=0;entryPerimeter=0;" edge="1" parent="1" source="ZUR1X7jLnE7plWEAR9zV-63" target="ZUR1X7jLnE7plWEAR9zV-60">
                    <mxGeometry x="-0.35" width="160" relative="1" as="geometry">
                        <mxPoint x="530" y="810" as="sourcePoint"/>
                        <mxPoint x="530" y="770" as="targetPoint"/>
                        <Array as="points">
                            <mxPoint x="920" y="800"/>
                            <mxPoint x="560" y="800"/>
                        </Array>
                        <mxPoint as="offset"/>
                    </mxGeometry>
                </mxCell>
                <mxCell id="ZUR1X7jLnE7plWEAR9zV-71" value="Use" style="endArrow=open;endSize=12;dashed=1;html=1;exitX=0.5;exitY=0;exitDx=0;exitDy=0;entryX=0.75;entryY=1;entryDx=0;entryDy=0;" edge="1" parent="1" source="ZUR1X7jLnE7plWEAR9zV-63" target="ZUR1X7jLnE7plWEAR9zV-43">
                    <mxGeometry x="0.3302" width="160" relative="1" as="geometry">
                        <mxPoint x="775" y="890" as="sourcePoint"/>
                        <mxPoint x="705" y="280" as="targetPoint"/>
                        <Array as="points">
                            <mxPoint x="960" y="560"/>
                            <mxPoint x="760" y="560"/>
                            <mxPoint x="760" y="340"/>
                            <mxPoint x="680" y="340"/>
                        </Array>
                        <mxPoint as="offset"/>
                    </mxGeometry>
                </mxCell>
                <mxCell id="ynJ-LX97D-C2hGidjF-I-63" value="JDialog" style="html=1;" vertex="1" parent="1">
                    <mxGeometry x="520" y="-200" width="120" height="40" as="geometry"/>
                </mxCell>
                <mxCell id="ynJ-LX97D-C2hGidjF-I-64" value="Â«interfaceÂ»&lt;br&gt;&lt;b&gt;ActionListener&lt;/b&gt;" style="html=1;" vertex="1" parent="1">
                    <mxGeometry x="680" y="-200" width="120" height="40" as="geometry"/>
                </mxCell>
                <mxCell id="ZUR1X7jLnE7plWEAR9zV-75" value="JPanel" style="html=1;" vertex="1" parent="1">
                    <mxGeometry x="1320" y="360" width="120" height="40" as="geometry"/>
                </mxCell>
                <mxCell id="ZUR1X7jLnE7plWEAR9zV-76" value="Extends" style="endArrow=block;endSize=16;endFill=0;html=1;exitX=0.5;exitY=0;exitDx=0;exitDy=0;entryX=0.5;entryY=1;entryDx=0;entryDy=0;" edge="1" parent="1" source="Qho0EwhKo2QukKXMdGNx-34" target="ZUR1X7jLnE7plWEAR9zV-75">
                    <mxGeometry width="160" relative="1" as="geometry">
                        <mxPoint x="1275" y="470" as="sourcePoint"/>
                        <mxPoint x="1435" y="470" as="targetPoint"/>
                    </mxGeometry>
                </mxCell>
                <mxCell id="ZUR1X7jLnE7plWEAR9zV-77" value="Use" style="endArrow=open;endSize=12;dashed=1;html=1;exitX=0.25;exitY=0;exitDx=0;exitDy=0;" edge="1" parent="1" source="Qho0EwhKo2QukKXMdGNx-34">
                    <mxGeometry x="-0.652" width="160" relative="1" as="geometry">
                        <mxPoint x="760" y="860" as="sourcePoint"/>
                        <mxPoint x="710" y="278" as="targetPoint"/>
                        <Array as="points">
                            <mxPoint x="1290" y="310"/>
                            <mxPoint x="1030" y="310"/>
                            <mxPoint x="710" y="310"/>
                        </Array>
                        <mxPoint as="offset"/>
                    </mxGeometry>
                </mxCell>
                <mxCell id="ZUR1X7jLnE7plWEAR9zV-81" value="" style="endArrow=open;endFill=1;endSize=12;html=1;exitX=0.108;exitY=-0.006;exitDx=0;exitDy=0;exitPerimeter=0;entryX=0.812;entryY=1.062;entryDx=0;entryDy=0;entryPerimeter=0;" edge="1" parent="1" source="Qho0EwhKo2QukKXMdGNx-34" target="ZUR1X7jLnE7plWEAR9zV-40">
                    <mxGeometry width="160" relative="1" as="geometry">
                        <mxPoint x="1170" y="960" as="sourcePoint"/>
                        <mxPoint x="630" y="700" as="targetPoint"/>
                        <Array as="points">
                            <mxPoint x="1239" y="690"/>
                            <mxPoint x="590" y="690"/>
                        </Array>
                    </mxGeometry>
                </mxCell>
                <mxCell id="ZUR1X7jLnE7plWEAR9zV-83" value="" style="endArrow=open;endFill=1;endSize=12;html=1;exitX=-0.013;exitY=0.874;exitDx=0;exitDy=0;exitPerimeter=0;entryX=-0.006;entryY=0.305;entryDx=0;entryDy=0;entryPerimeter=0;" edge="1" parent="1" target="27">
                    <mxGeometry width="160" relative="1" as="geometry">
                        <mxPoint x="119.99999999999977" y="246.51600000000008" as="sourcePoint"/>
                        <mxPoint x="20" y="430" as="targetPoint"/>
                        <Array as="points">
                            <mxPoint x="20" y="247"/>
                            <mxPoint x="20" y="430"/>
                        </Array>
                    </mxGeometry>
                </mxCell>
                <mxCell id="ynJ-LX97D-C2hGidjF-I-67" value="" style="endArrow=block;dashed=1;endFill=0;endSize=12;html=1;entryX=0.5;entryY=1;entryDx=0;entryDy=0;exitX=0.814;exitY=-0.008;exitDx=0;exitDy=0;exitPerimeter=0;" edge="1" parent="1" source="30" target="ynJ-LX97D-C2hGidjF-I-64">
                    <mxGeometry width="160" relative="1" as="geometry">
                        <mxPoint x="730" y="-80" as="sourcePoint"/>
                        <mxPoint x="600" y="170" as="targetPoint"/>
                    </mxGeometry>
                </mxCell>
                <mxCell id="ynJ-LX97D-C2hGidjF-I-68" value="Extends" style="endArrow=block;endSize=16;endFill=0;html=1;exitX=0.222;exitY=0.004;exitDx=0;exitDy=0;entryX=0.5;entryY=1;entryDx=0;entryDy=0;exitPerimeter=0;" edge="1" parent="1" source="30" target="ynJ-LX97D-C2hGidjF-I-63">
                    <mxGeometry width="160" relative="1" as="geometry">
                        <mxPoint x="440" y="170" as="sourcePoint"/>
                        <mxPoint x="600" y="170" as="targetPoint"/>
                    </mxGeometry>
                </mxCell>
                <mxCell id="Qho0EwhKo2QukKXMdGNx-42" value="" style="endArrow=open;endFill=1;endSize=12;html=1;entryX=0.875;entryY=1.019;entryDx=0;entryDy=0;entryPerimeter=0;" edge="1" parent="1" target="25">
                    <mxGeometry width="160" relative="1" as="geometry">
                        <mxPoint x="800" y="690" as="sourcePoint"/>
                        <mxPoint x="900" y="630" as="targetPoint"/>
                    </mxGeometry>
                </mxCell>
                <mxCell id="ynJ-LX97D-C2hGidjF-I-69" value="" style="endArrow=open;endFill=1;endSize=12;html=1;exitX=0;exitY=0.177;exitDx=0;exitDy=0;exitPerimeter=0;entryX=0.63;entryY=0.003;entryDx=0;entryDy=0;entryPerimeter=0;" edge="1" parent="1" source="31" target="ynJ-LX97D-C2hGidjF-I-38">
                    <mxGeometry width="160" relative="1" as="geometry">
                        <mxPoint x="260" y="-180.5" as="sourcePoint"/>
                        <mxPoint x="-120" y="-32" as="targetPoint"/>
                        <Array as="points">
                            <mxPoint x="-114" y="-32"/>
                        </Array>
                    </mxGeometry>
                </mxCell>
                <mxCell id="ZUR1X7jLnE7plWEAR9zV-84" value="" style="endArrow=open;endFill=1;endSize=12;html=1;exitX=-0.013;exitY=0.874;exitDx=0;exitDy=0;exitPerimeter=0;entryX=-0.008;entryY=0.826;entryDx=0;entryDy=0;entryPerimeter=0;" edge="1" parent="1" target="Qho0EwhKo2QukKXMdGNx-37">
                    <mxGeometry width="160" relative="1" as="geometry">
                        <mxPoint x="119.99999999999977" y="756.5160000000001" as="sourcePoint"/>
                        <mxPoint x="118.55999999999972" y="939.5700000000002" as="targetPoint"/>
                        <Array as="points">
                            <mxPoint x="80" y="757"/>
                            <mxPoint x="80" y="1027"/>
                        </Array>
                    </mxGeometry>
                </mxCell>
                <mxCell id="ynJ-LX97D-C2hGidjF-I-70" value="" style="endArrow=open;endFill=1;endSize=12;html=1;exitX=1;exitY=0.25;exitDx=0;exitDy=0;entryX=0.123;entryY=1.044;entryDx=0;entryDy=0;entryPerimeter=0;" edge="1" parent="1" source="ZUR1X7jLnE7plWEAR9zV-43" target="ZUR1X7jLnE7plWEAR9zV-50">
                    <mxGeometry width="160" relative="1" as="geometry">
                        <mxPoint x="720" y="245" as="sourcePoint"/>
                        <mxPoint x="860" y="170" as="targetPoint"/>
                        <Array as="points">
                            <mxPoint x="860" y="220"/>
                        </Array>
                    </mxGeometry>
                </mxCell>
                <mxCell id="ZUR1X7jLnE7plWEAR9zV-85" value="" style="endArrow=open;endFill=1;endSize=12;html=1;exitX=0.407;exitY=1.011;exitDx=0;exitDy=0;exitPerimeter=0;entryX=0.378;entryY=1.002;entryDx=0;entryDy=0;entryPerimeter=0;" edge="1" parent="1" source="ynJ-LX97D-C2hGidjF-I-41" target="25">
                    <mxGeometry width="160" relative="1" as="geometry">
                        <mxPoint x="-80" y="660" as="sourcePoint"/>
                        <mxPoint x="720" y="662" as="targetPoint"/>
                        <Array as="points">
                            <mxPoint x="-160" y="1080"/>
                            <mxPoint x="720" y="1080"/>
                        </Array>
                    </mxGeometry>
                </mxCell>
                <mxCell id="ynJ-LX97D-C2hGidjF-I-71" value="" style="endArrow=open;endFill=1;endSize=12;html=1;entryX=0.214;entryY=1.026;entryDx=0;entryDy=0;exitX=1.019;exitY=0.682;exitDx=0;exitDy=0;exitPerimeter=0;entryPerimeter=0;" edge="1" parent="1" source="ZUR1X7jLnE7plWEAR9zV-44" target="ZUR1X7jLnE7plWEAR9zV-54">
                    <mxGeometry width="160" relative="1" as="geometry">
                        <mxPoint x="730" y="255" as="sourcePoint"/>
                        <mxPoint x="858.0799999999999" y="254.98999999999978" as="targetPoint"/>
                        <Array as="points">
                            <mxPoint x="800" y="256"/>
                            <mxPoint x="1074" y="256"/>
                        </Array>
                    </mxGeometry>
                </mxCell>
                <mxCell id="ZUR1X7jLnE7plWEAR9zV-86" value="" style="endArrow=open;endFill=1;endSize=12;html=1;entryX=0.064;entryY=1.029;entryDx=0;entryDy=0;entryPerimeter=0;exitX=0.831;exitY=1.005;exitDx=0;exitDy=0;exitPerimeter=0;" edge="1" parent="1" source="ynJ-LX97D-C2hGidjF-I-37" target="ZUR1X7jLnE7plWEAR9zV-40">
                    <mxGeometry width="160" relative="1" as="geometry">
                        <mxPoint x="-377" y="723" as="sourcePoint"/>
                        <mxPoint x="363" y="710" as="targetPoint"/>
                        <Array as="points">
                            <mxPoint x="-361" y="1120"/>
                            <mxPoint x="640" y="1120"/>
                            <mxPoint x="640" y="710"/>
                            <mxPoint x="470" y="710"/>
                        </Array>
                    </mxGeometry>
                </mxCell>
                <mxCell id="ynJ-LX97D-C2hGidjF-I-72" value="Use" style="endArrow=open;endSize=12;dashed=1;html=1;exitX=-0.002;exitY=0.433;exitDx=0;exitDy=0;entryX=0.465;entryY=0.994;entryDx=0;entryDy=0;entryPerimeter=0;exitPerimeter=0;" edge="1" parent="1" source="31" target="13">
                    <mxGeometry width="160" relative="1" as="geometry">
                        <mxPoint x="440" y="-290" as="sourcePoint"/>
                        <mxPoint x="60" as="targetPoint"/>
                        <Array as="points">
                            <mxPoint x="195"/>
                        </Array>
                    </mxGeometry>
                </mxCell>
                <mxCell id="ZUR1X7jLnE7plWEAR9zV-88" value="Use" style="endArrow=open;endSize=12;dashed=1;html=1;exitX=0.483;exitY=1;exitDx=0;exitDy=0;exitPerimeter=0;entryX=0.993;entryY=-0.018;entryDx=0;entryDy=0;entryPerimeter=0;" edge="1" parent="1" source="29" target="7">
                    <mxGeometry width="160" relative="1" as="geometry">
                        <mxPoint x="560" y="1972" as="sourcePoint"/>
                        <mxPoint x="40" y="940" as="targetPoint"/>
                        <Array as="points">
                            <mxPoint x="236" y="940"/>
                        </Array>
                    </mxGeometry>
                </mxCell>
                <mxCell id="Qho0EwhKo2QukKXMdGNx-43" value="Use" style="endArrow=open;endSize=12;dashed=1;html=1;entryX=0.74;entryY=0.98;entryDx=0;entryDy=0;entryPerimeter=0;" edge="1" parent="1" target="ZUR1X7jLnE7plWEAR9zV-50">
                    <mxGeometry x="-0.5615" y="1" width="160" relative="1" as="geometry">
                        <mxPoint x="960" y="570" as="sourcePoint"/>
                        <mxPoint x="1050" y="480" as="targetPoint"/>
                        <mxPoint as="offset"/>
                    </mxGeometry>
                </mxCell>
                <mxCell id="Qho0EwhKo2QukKXMdGNx-44" value="Use" style="endArrow=open;endSize=12;dashed=1;html=1;entryX=0.495;entryY=1.015;entryDx=0;entryDy=0;entryPerimeter=0;" edge="1" parent="1" target="ZUR1X7jLnE7plWEAR9zV-54">
                    <mxGeometry x="-0.1233" width="160" relative="1" as="geometry">
                        <mxPoint x="960" y="570" as="sourcePoint"/>
                        <mxPoint x="1100" y="350" as="targetPoint"/>
                        <Array as="points">
                            <mxPoint x="960" y="560"/>
                            <mxPoint x="1119" y="560"/>
                        </Array>
                        <mxPoint as="offset"/>
                    </mxGeometry>
                </mxCell>
            </root>
        </mxGraphModel>
    </diagram>
</mxfile>